# xmcd CD database file
#
# Track frame offsets:
#	150
#	12330
#	24025
#	38025
#	55845
#	66646
#	75371
#	81673
#	94062
#	104723
#	121604
#	130398
#
# Disc length: 1894 seconds
#
# Revision: 0
# Processed by: cddbd v1.5.2PL0 Copyright (c) Steve Scherf et al.
# Submitted via: CDex 1.51
#
DISCID=9707640c
DTITLE=Big Walter Price - Git To Gittin'
DYEAR=2000
DGENRE=Blues
TTITLE0=I Can't Stand It
TTITLE1=Git To Gitin'
TTITLE2=Nobody loves Me
TTITLE3=If The Blues Was Money
TTITLE4=Money Is The Root Of All Evil
TTITLE5=Love Me One More Time
TTITLE6=Dine It's About Time
TTITLE7=The Answer To Staggerlee
TTITLE8=If It Don't Fit, Don't Force It
TTITLE9=To The Married Men
TTITLE10=Sandy Claws
TTITLE11=Git To Gittin (Alternate Take)
EXTD=YEAR: 2000
EXTT0=
EXTT1=
EXTT2=
EXTT3=
EXTT4=
EXTT5=
EXTT6=
EXTT7=
EXTT8=
EXTT9=
EXTT10=
EXTT11=
PLAYORDER=
